<svg width="200" height="17" viewBox="0 0 938 79" fill="none" xmlns="http://www.w3.org/2000/svg"><path fill-rule="evenodd" clip-rule="evenodd" d="M30.7862 29.391L49.1915 31.3991C68.8234 33.5187 78.974 41.3268 78.974 54.4886C78.974 69.7706 64.9193 78.3596 39.2638 78.3596C12.9396 78.3596 0 69.7706 0 52.3697H17.9588C17.9588 59.955 25.767 64.1934 39.7103 64.1934C53.765 64.1934 60.0115 61.6274 60.0115 55.0465C60.0115 50.1387 55.5495 48.0192 47.5184 47.1269L29.894 45.2309C11.4894 43.2228 2.23101 35.749 2.23101 22.9215C2.23101 9.20187 17.0665 0.277832 38.1486 0.277832C61.4617 0.277832 75.2928 9.20187 75.2928 23.9253H57.7805C56.9997 17.4558 50.6417 14.1097 38.483 14.1097C26.3249 14.1097 20.7477 17.01 20.7477 22.3636C20.7477 27.0485 24.3168 28.7223 30.7862 29.391ZM551.592 62.9663C536.534 62.9663 527.721 54.2658 527.721 39.3189C527.721 24.3719 536.534 15.6715 551.592 15.6715C563.304 15.6715 570.22 20.2442 572.674 29.2797H591.86C589.963 11.9902 573.566 0.277985 551.592 0.277985C525.378 0.277985 508.313 15.6715 508.313 39.3189C508.313 63.0777 525.267 78.3597 551.592 78.3597C574.458 78.3597 590.41 66.201 592.083 47.5728H572.897C571.782 57.2777 563.974 62.9663 551.592 62.9663ZM446.636 46.3462L460.348 10.4286H460.906L474.557 46.3462H446.636ZM446.07 2.17398L417.737 76.4631H435.139L441.313 60.2895H479.856L486.003 76.4631H505.3L476.856 2.17398H446.07ZM167.987 2.1741H148.355L119.465 31.5108H110.765V2.1741H93.1402V76.4632H110.765V45.5655H119.465L148.02 76.4632H170.888L134.031 36.6798L167.987 2.1741ZM217.736 2.1741H235.361V62.1856H275.517V76.4632H217.736V2.1741ZM304.965 2.1741H287.341V76.4632H345.121V62.1856H304.965V2.1741ZM374.569 16.4519H418.964V2.17428H356.945V76.4634H374.569V49.1348H411.379V34.8572H374.569V16.4519ZM198.774 76.4634H181.15V2.17428H198.774V76.4634ZM699.836 2.17429H744.804V19.2409H699.836V2.17429ZM699.836 19.2409L699.836 59.3968H681.207V19.2408L699.836 19.2409ZM744.804 19.2409L763.432 19.2408V59.3968H744.804V19.2409ZM821.324 38.2032H797.341V16.4518H821.324C829.578 16.4518 834.709 20.6909 834.709 27.3832C834.709 34.0762 829.578 38.2032 821.324 38.2032ZM853.003 27.3832C853.003 11.879 840.955 2.17415 821.324 2.17415H779.606V76.4633H797.341V52.4808H814.738L834.709 76.4633H856.237L833.488 49.1439C845.811 46.1803 853.003 38.414 853.003 27.3832ZM919.149 2.1741L898.067 35.1913L876.985 2.1741H856.461L888.363 51.0313V76.4632H905.987V51.0313L938 2.1741H919.149ZM625.881 16.4519H597.995V2.17428H671.503V16.4519H643.505V76.4634H625.881V16.4519ZM744.804 76.4634H699.836V59.3969H744.804V76.4634Z" fill="black"/></svg>
